<svg xmlns="http://www.w3.org/2000/svg" viewBox="1372 -78 485 485"><rect x="1372" y="-78" width="485" height="485" rx="108" fill="#0B1029"/><path d="M 1596.500 55.229 C 1562.014 59.800, 1532.210 76.117, 1514.036 100.376 C 1508.392 107.909, 1499.894 123.613, 1497.868 130.253 C 1495.066 139.438, 1493.899 144.985, 1492.912 153.806 L 1491.827 163.500 1492.472 173.500 C 1494.109 198.905, 1504.082 222.887, 1520.428 240.726 L 1526.363 247.203 1529.931 246.565 C 1531.894 246.214, 1536.189 245.467, 1539.475 244.905 C 1547.069 243.607, 1547.035 243.665, 1542.832 239.232 C 1482.901 176.019, 1526.719 66.080, 1612 65.689 L 1623.500 65.637 1629 66.913 C 1655.795 73.132, 1676.639 87.566, 1691.289 110.048 C 1700.491 124.169, 1703.602 132.689, 1707.993 155.799 C 1712.544 179.747, 1703.398 213.922, 1686.953 234.418 L 1680.330 242.673 1684.679 243.837 C 1687.071 244.477, 1690.343 245, 1691.949 245 C 1693.556 245, 1695.984 245.424, 1697.345 245.941 L 1699.821 246.882 1704.703 241.691 C 1714.296 231.491, 1722.111 218.506, 1726.783 205 C 1730.158 195.244, 1730.806 192.650, 1732.050 183.917 L 1733.272 175.335 1732.716 161.917 L 1732.159 148.500 1730.040 140 C 1726.495 125.776, 1723.028 117.983, 1714.434 104.922 L 1708.133 95.343 1699.559 87.228 L 1690.986 79.112 1682.243 73.751 C 1673.005 68.085, 1662.802 63, 1660.673 63 C 1659.973 63, 1658.972 62.600, 1658.450 62.110 C 1653.205 57.196, 1614.277 52.873, 1596.500 55.229 " fill="#F4ECD8"/><path d="M 1611.616 130.741 C 1611.315 132.259, 1610.764 135.300, 1610.392 137.500 C 1607.598 154.029, 1598.655 161.953, 1577.709 166.458 L 1574.918 167.059 1575.518 168.029 C 1575.848 168.563, 1577.104 169.007, 1578.309 169.015 C 1594.109 169.121, 1608.200 182.454, 1610.931 199.882 C 1611.481 203.393, 1612.161 206.495, 1612.442 206.776 C 1613.028 207.362, 1613.162 206.964, 1615.564 197.500 C 1619.526 181.886, 1633.040 169.091, 1645.680 168.985 C 1646.681 168.976, 1648.152 168.557, 1648.948 168.053 L 1650.396 167.137 1647.448 166.539 C 1645.827 166.209, 1641.464 165.028, 1637.754 163.913 L 1631.007 161.887 1626.851 158.694 L 1622.696 155.500 1620.046 150.291 C 1618.588 147.427, 1616.572 141.454, 1615.566 137.019 C 1613.571 128.232, 1612.463 126.470, 1611.616 130.741 M 1590 251.022 C 1548.792 254.122, 1511.688 260.746, 1480.250 270.612 C 1474.063 272.554, 1469 274.622, 1469 275.207 L 1469 276.272 1473.750 275.569 C 1476.362 275.182, 1489.300 274.170, 1502.500 273.320 L 1526.500 271.775 1603 271.326 L 1679.500 270.878 1715.500 273.027 C 1735.300 274.210, 1753.468 275.415, 1755.872 275.705 L 1760.244 276.233 1759.805 274.915 C 1759.563 274.190, 1757.371 273.034, 1754.933 272.348 C 1738.918 267.836, 1731.058 265.676, 1728 264.945 C 1726.075 264.486, 1721.575 263.403, 1718 262.540 C 1681.416 253.707, 1623.536 248.498, 1590 251.022" fill="#E7B23C"/></svg>
