<svg xmlns="http://www.w3.org/2000/svg" width="1955" height="312" viewBox="61 0 1955 312"><path d="M 1323 55.565 C 1310.490 56.873, 1303.562 58.081, 1297 60.097 C 1290.993 61.943, 1279.636 66.346, 1276.500 68.045 C 1266.325 73.558, 1262.972 75.590, 1258.500 78.954 C 1233.368 97.856, 1219.515 123.258, 1215.939 157 L 1214.827 167.500 1215.986 177 C 1220.871 217.036, 1241.913 246.712, 1277.222 263.359 C 1281.468 265.362, 1285.412 267, 1285.985 267 C 1286.558 267, 1287.809 267.408, 1288.764 267.906 C 1290.745 268.940, 1299.898 271.341, 1308 272.952 C 1321.846 275.705, 1352.509 275.719, 1364.500 272.978 C 1370.143 271.688, 1384.465 267.380, 1387.500 266.059 C 1394.702 262.926, 1403.096 258.481, 1405.266 256.650 L 1407.816 254.500 1408.496 241.500 L 1409.177 228.500 1407.088 230.903 C 1405.940 232.225, 1405 233.619, 1405 234.002 C 1405 238.748, 1374.334 260, 1367.486 260 C 1366.734 260, 1365.887 260.374, 1365.604 260.831 C 1365.322 261.288, 1361.808 262.301, 1357.795 263.081 L 1350.500 264.500 1335 264.500 L 1319.500 264.500 1314.500 263.126 C 1274.339 252.091, 1251.071 227.714, 1242.926 188.140 L 1241 178.780 1241.003 169.140 C 1241.009 151.991, 1245.089 134.324, 1252.929 117.500 L 1256.658 109.500 1263.466 101 C 1271.923 90.442, 1282.767 81.583, 1294.500 75.645 L 1303.500 71.091 1314 68.310 L 1324.500 65.528 1341.500 65.587 L 1358.500 65.646 1367.350 67.922 C 1388.707 73.415, 1398.115 81.181, 1406.172 99.968 L 1408.973 106.500 1408.737 89.581 L 1408.500 72.663 1399.500 68.048 C 1385.344 60.790, 1375.235 58.060, 1353 55.490 C 1338.686 53.835, 1339.561 53.833, 1323 55.565 M 1596.500 55.229 C 1562.014 59.800, 1532.210 76.117, 1514.036 100.376 C 1508.392 107.909, 1499.894 123.613, 1497.868 130.253 C 1495.066 139.438, 1493.899 144.985, 1492.912 153.806 L 1491.827 163.500 1492.472 173.500 C 1494.109 198.905, 1504.082 222.887, 1520.428 240.726 L 1526.363 247.203 1529.931 246.565 C 1531.894 246.214, 1536.189 245.467, 1539.475 244.905 C 1547.069 243.607, 1547.035 243.665, 1542.832 239.232 C 1482.901 176.019, 1526.719 66.080, 1612 65.689 L 1623.500 65.637 1629 66.913 C 1655.795 73.132, 1676.639 87.566, 1691.289 110.048 C 1700.491 124.169, 1703.602 132.689, 1707.993 155.799 C 1712.544 179.747, 1703.398 213.922, 1686.953 234.418 L 1680.330 242.673 1684.679 243.837 C 1687.071 244.477, 1690.343 245, 1691.949 245 C 1693.556 245, 1695.984 245.424, 1697.345 245.941 L 1699.821 246.882 1704.703 241.691 C 1714.296 231.491, 1722.111 218.506, 1726.783 205 C 1730.158 195.244, 1730.806 192.650, 1732.050 183.917 L 1733.272 175.335 1732.716 161.917 L 1732.159 148.500 1730.040 140 C 1726.495 125.776, 1723.028 117.983, 1714.434 104.922 L 1708.133 95.343 1699.559 87.228 L 1690.986 79.112 1682.243 73.751 C 1673.005 68.085, 1662.802 63, 1660.673 63 C 1659.973 63, 1658.972 62.600, 1658.450 62.110 C 1653.205 57.196, 1614.277 52.873, 1596.500 55.229 M 86.500 60 C 72.200 60.303, 61.133 60.652, 61.906 60.775 C 64.630 61.211, 70.042 66.161, 72.009 70.018 L 74 73.920 74 164.971 L 74 256.022 71.847 260.602 L 69.694 265.182 66.359 267.341 C 60.948 270.845, 61.865 271, 88 271 L 113 271 113 270 C 113 269.450, 112.347 269, 111.548 269 C 109.183 269, 103.416 262.332, 102.162 258.148 L 101 254.268 101 210.627 L 101 166.985 164.750 167.243 L 228.500 167.500 228.804 208.500 L 229.109 249.500 227.894 255 C 226.543 261.117, 223.041 266.568, 219.397 268.229 C 218.079 268.830, 217 269.699, 217 270.161 L 217 271 241 271 C 265.470 271, 267.199 270.730, 262.087 267.710 L 259.173 265.989 256.837 261.245 L 254.500 256.500 254.224 167.500 L 253.948 78.500 255.224 74.130 C 256.678 69.151, 261.093 63.732, 265.500 61.519 L 268.500 60.012 241.500 60.050 L 214.500 60.088 218.196 62.041 C 222.892 64.520, 226.288 69.193, 227.807 75.264 L 229 80.029 229 117.898 L 229 155.767 227.250 156.168 C 226.288 156.388, 197.600 156.553, 163.500 156.534 L 101.500 156.500 101.239 115.763 L 100.978 75.026 103.058 70.600 L 105.138 66.174 109.048 63.587 C 111.198 62.164, 113.443 61, 114.038 61 C 114.632 61, 114.840 60.550, 114.500 60 C 114.160 59.450, 113.571 59.101, 113.191 59.225 C 112.811 59.348, 100.800 59.697, 86.500 60 M 365.843 61.693 C 369.954 63.718, 373.807 68.413, 375.610 73.593 L 376.970 77.500 376.985 165.572 L 377 253.644 375.416 258.292 L 373.832 262.940 370.571 265.720 C 368.777 267.249, 366.452 269.038, 365.404 269.695 L 363.500 270.890 436.446 270.695 L 509.392 270.500 511.055 262 C 511.969 257.325, 513.049 251.262, 513.454 248.527 L 514.189 243.555 510.845 247.649 C 506.546 252.912, 502.675 255.563, 495.722 258.006 L 490.126 259.973 447.313 260.237 L 404.500 260.500 404.240 213.867 L 403.980 167.234 424.740 166.576 L 445.500 165.918 457.500 166.860 L 469.500 167.802 472.729 169.464 C 474.505 170.378, 477.317 172.775, 478.979 174.791 L 482 178.456 481.989 161.478 L 481.978 144.500 479.395 147.778 C 477.974 149.580, 474.959 152.001, 472.695 153.156 L 468.578 155.256 457.539 156.046 C 451.468 156.480, 437.050 156.709, 425.500 156.555 L 404.500 156.274 403.824 151.887 C 402.921 146.022, 402.851 120.460, 403.662 92.589 L 404.323 69.855 442.412 70.257 L 480.500 70.659 484.025 71.928 C 489.265 73.815, 495.238 78.171, 497.500 81.755 C 498.600 83.497, 499.837 84.940, 500.250 84.961 C 501.164 85.008, 501.242 71.047, 500.364 64.640 L 499.728 60 431.114 60.023 L 362.500 60.046 365.843 61.693 M 592.500 61.573 C 596.785 63.801, 599.922 66.969, 601.837 71 L 603.500 74.500 603.500 165.500 L 603.500 256.500 600.987 260.988 C 599.605 263.456, 597.035 266.381, 595.276 267.488 C 593.516 268.594, 592.060 269.837, 592.039 270.250 C 592.017 270.663, 624.574 271, 664.387 271 L 736.774 271 737.939 264.250 C 738.580 260.538, 739.510 255.700, 740.004 253.500 C 740.499 251.300, 741.190 247.250, 741.541 244.500 L 742.178 239.500 736.557 245.692 L 730.936 251.885 725.718 254.299 C 722.848 255.627, 717.575 257.340, 714 258.107 L 707.500 259.500 668.500 259.500 L 629.500 259.500 629.500 167 L 629.500 74.500 631.293 70.758 C 633.214 66.748, 638.561 61.911, 642.243 60.850 C 643.484 60.492, 632.125 60.157, 617 60.106 L 589.500 60.012 592.500 61.573 M 815.800 61.672 C 817.614 62.566, 820.626 65.081, 822.492 67.261 L 825.884 71.225 826.500 76.362 C 826.838 79.188, 826.977 121.325, 826.807 170 L 826.500 258.500 824.648 261.808 C 823.629 263.627, 821.272 266.102, 819.410 267.308 C 813.954 270.841, 814.842 271, 840 271 C 864.922 271, 866.031 270.813, 860.711 267.500 L 857.500 265.500 855.194 260.671 L 852.888 255.843 852.958 164.854 L 853.028 73.865 854.908 70.183 C 857.053 65.979, 859.221 63.808, 863.502 61.575 L 866.500 60.012 839.500 60.029 L 812.500 60.046 815.800 61.672 M 1019.759 62.567 C 1030.839 68.088, 1039.376 83.723, 1035.612 91.596 C 1034.848 93.193, 1032.086 99.900, 1029.474 106.500 C 1026.862 113.100, 1024.336 118.927, 1023.862 119.450 C 1023.388 119.972, 1023 120.952, 1023 121.627 C 1023 122.302, 1021.425 126.264, 1019.500 130.431 C 1017.575 134.599, 1016 138.271, 1016 138.592 C 1016 138.914, 1014.650 142.093, 1013 145.658 C 1011.350 149.223, 1010 152.331, 1010 152.566 C 1010 152.800, 1008.425 156.401, 1006.500 160.569 C 1004.575 164.736, 1003 168.327, 1003 168.548 C 1003 168.769, 1001.662 171.871, 1000.026 175.442 C 998.391 179.013, 995.870 184.762, 994.425 188.217 C 992.979 191.673, 990.777 196.750, 989.532 199.500 C 988.286 202.250, 986.252 206.750, 985.011 209.500 C 965.003 253.841, 958.876 263.772, 948.750 268.267 C 943.424 270.632, 946.219 271, 969.500 271 C 993.451 271, 995.407 270.702, 989.727 267.918 C 987.952 267.048, 985.487 264.844, 984.250 263.020 L 982 259.704 982 254.899 C 982 252.256, 982.506 248.835, 983.125 247.297 C 989.205 232.173, 1023.821 148.007, 1028.594 136.742 C 1031.567 129.725, 1034.003 123.650, 1034.006 123.242 C 1034.010 122.834, 1034.590 121.375, 1035.297 120 C 1036.003 118.625, 1037.904 114.013, 1039.522 109.750 C 1042.997 100.589, 1043.880 100.294, 1046.994 107.250 C 1049.707 113.312, 1054.056 122.769, 1059.897 135.309 C 1062.154 140.154, 1064 144.332, 1064 144.592 C 1064 144.852, 1066.070 149.213, 1068.601 154.283 C 1071.131 159.352, 1074.006 165.528, 1074.990 168.006 C 1075.973 170.484, 1078.450 176.109, 1080.494 180.506 C 1082.538 184.903, 1085.346 190.975, 1086.735 194 C 1088.125 197.025, 1090.825 202.875, 1092.735 207 C 1094.646 211.125, 1097.246 216.750, 1098.512 219.500 C 1101.711 226.449, 1108.721 242.332, 1111.712 249.411 L 1114.209 255.322 1113.672 258.634 C 1112.986 262.860, 1110.256 266.583, 1106.750 268.074 C 1105.237 268.717, 1104 269.638, 1104 270.121 L 1104 271 1135 271 C 1167.209 271, 1168.754 270.799, 1161.739 267.518 C 1159.407 266.428, 1154.904 262.920, 1151.731 259.723 L 1145.962 253.910 1138.363 238.205 C 1134.184 229.567, 1129.636 220.025, 1128.257 217 C 1126.878 213.975, 1123.781 207.325, 1121.375 202.222 C 1118.969 197.119, 1117 192.768, 1117 192.554 C 1117 192.339, 1114.280 186.389, 1110.956 179.332 C 1107.632 172.274, 1104.508 165.600, 1104.014 164.500 C 1103.520 163.400, 1099.715 155.422, 1095.558 146.772 C 1091.401 138.121, 1088 130.833, 1088 130.577 C 1088 130.320, 1084.579 122.998, 1080.397 114.305 C 1076.215 105.612, 1071.659 96.025, 1070.271 93 C 1066.171 84.064, 1060.009 70.886, 1057.294 65.250 L 1054.765 60 1034.686 60 L 1014.607 60 1019.759 62.567 M 1805.870 62.264 C 1811.360 65.073, 1820.081 73.659, 1824.567 80.672 L 1828 86.039 1828 167.535 L 1828 249.030 1826.273 255.242 L 1824.546 261.454 1820.773 265.227 C 1818.698 267.302, 1816.325 269, 1815.500 269 C 1814.675 269, 1814 269.450, 1814 270 L 1814 271 1833.500 271 L 1853 271 1853 270 C 1853 269.450, 1852.392 269, 1851.648 269 C 1849.390 269, 1843.921 263.063, 1841.646 258.142 L 1839.500 253.500 1839.500 176.333 L 1839.500 99.166 1840.332 98.335 L 1841.164 97.503 1842.523 99.363 C 1843.271 100.386, 1845.602 103.085, 1847.703 105.361 C 1851.222 109.173, 1870.863 131.840, 1878.946 141.417 C 1880.841 143.663, 1884.441 147.770, 1886.946 150.544 C 1889.451 153.318, 1893.525 158.043, 1896 161.044 C 1898.475 164.045, 1902.317 168.525, 1904.537 171 C 1906.758 173.475, 1911.923 179.550, 1916.016 184.500 C 1920.109 189.450, 1924.306 194.400, 1925.344 195.500 C 1926.381 196.600, 1932.894 204.250, 1939.817 212.500 C 1946.739 220.750, 1952.672 227.725, 1953 228 C 1953.328 228.275, 1959.411 235.475, 1966.516 244 C 1973.622 252.525, 1979.992 260.074, 1980.671 260.775 C 1981.351 261.476, 1983.557 264.063, 1985.574 266.525 L 1989.241 271 1994.620 271 L 2000 271 1999.990 253.750 C 1999.984 244.262, 2000.221 200.725, 2000.516 157 L 2001.052 77.500 2002.150 74 C 2003.810 68.706, 2007.799 63.995, 2012.384 61.913 L 2016.500 60.044 1995 60.056 L 1973.500 60.068 1977.169 61.806 C 1984.708 65.377, 1987.530 69.705, 1989.016 79.976 L 1989.960 86.500 1989.980 159.691 L 1990 232.882 1989.151 233.407 C 1988.160 234.019, 1988.128 233.985, 1968.583 210.500 C 1960.344 200.600, 1953.307 192.275, 1952.946 192 C 1952.585 191.725, 1949.187 187.647, 1945.395 182.938 C 1937.644 173.312, 1910.047 140.614, 1897.051 125.660 C 1892.348 120.248, 1887.150 114.124, 1885.500 112.051 C 1882.402 108.160, 1855.884 77.292, 1846.153 66.250 L 1840.645 60 1821.072 60.014 L 1801.500 60.028 1805.870 62.264" stroke="none" fill="#ECE6D8" fill-rule="evenodd"/><path d="M 1611.616 130.741 C 1611.315 132.259, 1610.764 135.300, 1610.392 137.500 C 1607.598 154.029, 1598.655 161.953, 1577.709 166.458 L 1574.918 167.059 1575.518 168.029 C 1575.848 168.563, 1577.104 169.007, 1578.309 169.015 C 1594.109 169.121, 1608.200 182.454, 1610.931 199.882 C 1611.481 203.393, 1612.161 206.495, 1612.442 206.776 C 1613.028 207.362, 1613.162 206.964, 1615.564 197.500 C 1619.526 181.886, 1633.040 169.091, 1645.680 168.985 C 1646.681 168.976, 1648.152 168.557, 1648.948 168.053 L 1650.396 167.137 1647.448 166.539 C 1645.827 166.209, 1641.464 165.028, 1637.754 163.913 L 1631.007 161.887 1626.851 158.694 L 1622.696 155.500 1620.046 150.291 C 1618.588 147.427, 1616.572 141.454, 1615.566 137.019 C 1613.571 128.232, 1612.463 126.470, 1611.616 130.741 M 1590 251.022 C 1548.792 254.122, 1511.688 260.746, 1480.250 270.612 C 1474.063 272.554, 1469 274.622, 1469 275.207 L 1469 276.272 1473.750 275.569 C 1476.362 275.182, 1489.300 274.170, 1502.500 273.320 L 1526.500 271.775 1603 271.326 L 1679.500 270.878 1715.500 273.027 C 1735.300 274.210, 1753.468 275.415, 1755.872 275.705 L 1760.244 276.233 1759.805 274.915 C 1759.563 274.190, 1757.371 273.034, 1754.933 272.348 C 1738.918 267.836, 1731.058 265.676, 1728 264.945 C 1726.075 264.486, 1721.575 263.403, 1718 262.540 C 1681.416 253.707, 1623.536 248.498, 1590 251.022" stroke="none" fill="#E3A868" fill-rule="evenodd"/></svg>
